<svg width="480" height="552" viewBox="0 0 480 552" fill="none" xmlns="http://www.w3.org/2000/svg">
<path d="M16.9454 154.139C-1.05457 167.339 -1.22124 184.305 0.94543 191.139C22.5454 161.139 43.6121 178.639 51.4454 191.139C68.4454 210.139 90.9454 202.139 105.945 192.639C117.945 185.039 144.945 155.139 156.945 141.139C140.279 128.139 98.8454 102.139 66.4454 102.139C34.0454 102.139 19.9454 136.805 16.9454 154.139Z" fill="#FFB703"/>
<path d="M232.445 336.639C256.5 366.139 226.5 431.639 215.5 458.639C287 404.139 280.945 352.139 271.445 290.139C263.845 240.539 220.945 186.472 200.445 165.639L97.4454 260.639C115.845 272.639 146.112 285.305 158.945 290.139C193.345 299.339 222.666 324.646 232.445 336.639Z" fill="#FFB703"/>
<path d="M253.945 295.639C241.545 262.039 207.779 210.972 192.445 189.639L214.945 141.639L280.945 189.639C298.945 222.039 295.779 272.805 291.945 294.139C277.545 256.539 259.945 228.139 252.945 218.639C259.345 249.039 256.279 282.639 253.945 295.639Z" fill="#FFB703"/>
<path d="M364.945 268.139C332.545 230.539 292.112 197.805 275.945 186.139L210.945 142.139C232.612 109.472 203.5 86.6388 245.5 72.6388C287.5 58.6388 272.5 59.6388 272.5 59.6388L298 41.6388C298 41.6388 414.5 20.6388 480 81.1388C438 74.6388 394 84.6388 378.445 93.6388C414.045 111.639 447.279 151.472 459.445 169.139C412.245 146.339 372.112 136.639 357.945 134.639C395.945 163.039 421.112 205.805 428.945 223.639C379.345 191.239 334.945 173.805 318.945 169.139C350.145 200.739 362.612 248.305 364.945 268.139Z" fill="#FFB703"/>
<path d="M100.945 263.139C78.1454 252.339 58.7788 211.639 51.9454 192.639C82.4454 218.139 115.945 184.639 116.445 184.139C116.945 183.639 147.945 151.806 157.945 139.639C260.745 2.43889 382.5 -21.3612 461.5 15.6388C347 11.1388 247.445 92.1389 198.445 184.139C159.245 257.739 117.112 267.472 100.945 263.139Z" fill="white"/>
<path d="M34.052 498.332V551H21.032V498.332H34.052ZM64.962 539.66C67.202 539.66 69.638 539.436 72.27 538.988C74.902 538.484 77.254 537.84 79.326 537.056V548.564C76.246 549.796 73.474 550.636 71.01 551.084C68.546 551.588 65.97 551.84 63.282 551.84C58.41 551.84 54.518 551.28 51.606 550.16C48.694 549.04 46.37 547.248 44.634 544.784C43.178 542.656 42.086 539.94 41.358 536.636C40.686 533.332 40.35 529.328 40.35 524.624C40.35 515.216 42.366 508.356 46.398 504.044C50.486 499.676 56.954 497.492 65.802 497.492C68.378 497.492 70.674 497.548 72.69 497.66C74.706 497.772 76.526 497.968 78.15 498.248V509.588C76.302 509.476 74.37 509.392 72.354 509.336C70.394 509.28 68.21 509.252 65.802 509.252C62.722 509.252 60.426 509.56 58.914 510.176C57.458 510.736 56.366 511.744 55.638 513.2C54.966 514.32 54.49 515.804 54.21 517.652C53.93 519.5 53.79 521.824 53.79 524.624C53.79 527.256 53.902 529.468 54.126 531.26C54.406 532.996 54.826 534.452 55.386 535.628C56.114 537.084 57.178 538.12 58.578 538.736C59.978 539.352 62.106 539.66 64.962 539.66ZM94.1783 551H80.4863L99.9743 498.332H113.498L132.482 551H118.874L116.102 542.18H96.9503L94.1783 551ZM106.442 511.268C105.994 512.836 105.49 514.516 104.93 516.308C104.426 518.044 103.558 520.9 102.326 524.876L100.142 531.848H112.826L110.642 524.876C109.914 522.748 109.186 520.508 108.458 518.156C107.73 515.748 107.058 513.452 106.442 511.268ZM149.47 534.032V551H136.45V498.332H155.686C163.806 498.332 169.574 499.704 172.99 502.448C176.406 505.192 178.114 509.756 178.114 516.14C178.114 520.452 177.19 523.98 175.342 526.724C173.55 529.412 170.806 531.372 167.11 532.604L179.962 551H164.338L153.418 534.032H149.47ZM164.926 516.14C164.926 513.9 164.254 512.332 162.91 511.436C161.566 510.54 159.158 510.092 155.686 510.092H149.47V523.532H155.686C159.158 523.532 161.566 523 162.91 521.936C164.254 520.816 164.926 518.884 164.926 516.14ZM216.682 528.824V498.332H229.702V528.824C229.702 536.496 227.826 542.264 224.074 546.128C220.322 549.936 214.694 551.84 207.19 551.84C199.294 551.84 193.526 550.02 189.886 546.38C186.302 542.74 184.51 536.888 184.51 528.824V498.332H197.53V528.824C197.53 533.08 198.174 535.964 199.462 537.476C200.806 538.932 203.382 539.66 207.19 539.66C210.942 539.66 213.462 538.932 214.75 537.476C216.038 535.964 216.682 533.08 216.682 528.824ZM257.34 531.344L246.672 528.824C242.416 527.816 239.504 526.276 237.936 524.204C236.424 522.132 235.668 519.164 235.668 515.3C235.668 509.196 237.264 504.716 240.456 501.86C243.704 498.948 248.716 497.492 255.492 497.492C258.292 497.492 260.784 497.604 262.968 497.828C265.152 498.052 267.168 498.444 269.016 499.004V510.68C264.76 509.952 261.82 509.532 260.196 509.42C258.628 509.308 256.976 509.252 255.24 509.252C252.888 509.252 251.18 509.644 250.116 510.428C249.052 511.212 248.52 512.528 248.52 514.376C248.52 515.272 248.688 515.972 249.024 516.476C249.36 516.924 250.004 517.26 250.956 517.484L261.036 519.836C263.948 520.508 266.048 521.18 267.336 521.852C268.624 522.468 269.66 523.28 270.444 524.288C271.34 525.352 271.984 526.724 272.376 528.404C272.824 530.084 273.048 532.128 273.048 534.536C273.048 540.64 271.424 545.064 268.176 547.808C264.928 550.496 259.888 551.84 253.056 551.84C249.584 551.84 246.28 551.616 243.144 551.168C240.008 550.776 237.572 550.272 235.836 549.656V537.308C238.076 538.036 240.736 538.624 243.816 539.072C246.896 539.464 249.976 539.66 253.056 539.66C255.52 539.66 257.228 539.352 258.18 538.736C259.132 538.12 259.608 536.888 259.608 535.04C259.608 533.864 259.44 533.024 259.104 532.52C258.824 531.96 258.236 531.568 257.34 531.344Z" fill="white"/>
<path d="M308.188 532.1V551H301.048V498.332H318.94C326.388 498.332 331.708 499.62 334.9 502.196C338.148 504.716 339.772 508.916 339.772 514.796C339.772 519.388 338.736 523.056 336.664 525.8C334.648 528.488 331.568 530.308 327.424 531.26L341.2 551H332.632L319.864 532.1H308.188ZM332.548 514.796C332.548 511.212 331.512 508.664 329.44 507.152C327.368 505.584 323.868 504.8 318.94 504.8H308.188V525.8H318.94C323.756 525.8 327.228 524.932 329.356 523.196C331.484 521.46 332.548 518.66 332.548 514.796ZM393.97 524.54C393.97 534.116 392.122 541.032 388.426 545.288C384.786 549.544 378.822 551.672 370.534 551.672C361.63 551.672 355.47 549.712 352.054 545.792C348.694 541.816 347.014 534.732 347.014 524.54C347.014 515.02 348.862 508.132 352.558 503.876C356.254 499.62 362.246 497.492 370.534 497.492C379.438 497.492 385.57 499.48 388.93 503.456C392.29 507.376 393.97 514.404 393.97 524.54ZM356.758 539.744C357.822 541.648 359.39 542.992 361.462 543.776C363.534 544.56 366.558 544.952 370.534 544.952C376.75 544.952 381.006 543.468 383.302 540.5C385.598 537.476 386.746 532.156 386.746 524.54C386.746 520.732 386.55 517.624 386.158 515.216C385.766 512.752 385.15 510.764 384.31 509.252C383.246 507.348 381.678 506.004 379.606 505.22C377.59 504.38 374.566 503.96 370.534 503.96C364.262 503.96 359.978 505.472 357.682 508.496C355.386 511.52 354.238 516.868 354.238 524.54C354.238 528.348 354.434 531.484 354.826 533.948C355.218 536.356 355.862 538.288 356.758 539.744ZM424.749 544.952C427.045 544.952 429.453 544.7 431.973 544.196C434.549 543.636 436.929 542.908 439.113 542.012V548.396C436.033 549.628 433.289 550.496 430.881 551C428.529 551.448 426.065 551.672 423.489 551.672C415.425 551.672 409.741 549.6 406.437 545.456C403.133 541.256 401.481 534.284 401.481 524.54C401.481 515.188 403.385 508.356 407.193 504.044C411.057 499.676 417.189 497.492 425.589 497.492C428.165 497.492 430.461 497.548 432.477 497.66C434.493 497.772 436.313 497.968 437.937 498.248V504.548C435.977 504.324 433.989 504.184 431.973 504.128C430.013 504.016 427.885 503.96 425.589 503.96C419.317 503.96 414.949 505.528 412.485 508.664C410.021 511.744 408.789 517.036 408.789 524.54C408.789 532.156 409.909 537.476 412.149 540.5C414.389 543.468 418.589 544.952 424.749 544.952Z" fill="#F1F1F1"/>
</svg>
